<svg width="337" height="331" viewBox="0 0 337 331" fill="none" xmlns="http://www.w3.org/2000/svg">
<g clip-path="url(#clip0_162_212)">
<path d="M29.0404 0.0681359L30.1314 1.20374L2.25775 28.078L29.8685 55.2222L28.7665 56.3471L0.00027745 28.067L29.0404 0.0681359Z" fill="white"/>
<path d="M51.0963 56.2902L50.021 55.1397L78.262 28.6518L51.0277 1.12999L52.1451 0.0203334L80.5192 28.6939L51.0963 56.2902Z" fill="white"/>
<path d="M67.4399 70H63.9767C63.6674 70 63.4166 70.2394 63.4166 70.5346V83.4654C63.4166 83.7606 63.6674 84 63.9767 84H67.4399C67.7492 84 67.9999 83.7606 67.9999 83.4654V70.5346C67.9999 70.2394 67.7492 70 67.4399 70Z" fill="white"/>
<path d="M61.0232 70H57.5601C57.2508 70 57 70.2394 57 70.5346V83.4654C57 83.7606 57.2508 84 57.5601 84H61.0232C61.3326 84 61.5833 83.7606 61.5833 83.4654V70.5346C61.5833 70.2394 61.3326 70 61.0232 70Z" fill="white"/>
<path fill-rule="evenodd" clip-rule="evenodd" d="M40.2564 83.9751C40.1735 84.0276 40.0685 83.9944 40.022 83.9007C40.0076 83.8718 40.0001 83.8397 40 83.8071V70.1925C40 70.0875 40.077 70 40.1718 70C40.2014 70 40.231 70.0087 40.2564 70.0245L50.8245 76.6629C50.8784 76.6997 50.9227 76.7497 50.9533 76.8085C50.984 76.8673 51 76.933 51 76.9998C51 77.0666 50.984 77.1323 50.9533 77.1911C50.9227 77.2499 50.8784 77.2999 50.8245 77.3367L40.2555 83.9751H40.2564Z" fill="white"/>
<circle cx="7" cy="77" r="7" fill="white"/>
<circle cx="27" cy="77" r="4.5" stroke="white" stroke-width="5"/>
</g>
<defs>
<clipPath id="clip0_162_212">
<rect width="337" height="331" fill="white"/>
</clipPath>
</defs>
</svg>
