<svg width="360" height="60" viewBox="0 0 360 60" fill="none" xmlns="http://www.w3.org/2000/svg">
<g clip-path="url(#clip0_170_215)">
<rect width="60" height="60" rx="30" fill="#D3FDEB"/>
<path d="M20.625 36.5625H39.375V18.75H22.5C21.9725 18.7694 21.5331 18.955 21.1819 19.3069C20.8306 19.6587 20.645 20.0981 20.625 20.625V36.5625ZM22.5 16.875H40.3125C40.5863 16.875 40.8109 16.9628 40.9866 17.1384C41.1622 17.3141 41.25 17.5387 41.25 17.8125V37.5C41.25 37.7738 41.1622 37.9984 40.9866 38.1741C40.8109 38.3497 40.5863 38.4375 40.3125 38.4375H19.6875L18.75 40.1372V20.625C18.7694 19.57 19.1356 18.6862 19.8487 17.9737C20.5619 17.2612 21.4456 16.895 22.5 16.875ZM22.0312 38.4375C21.6406 38.4569 21.3134 38.5984 21.0497 38.8622C20.7859 39.1259 20.6541 39.4531 20.6541 39.8438C20.6541 40.2344 20.7859 40.5616 21.0497 40.8253C21.3134 41.0891 21.6406 41.2306 22.0312 41.25H39.375V38.4375H22.0312ZM22.0312 36.5625H41.25V41.25C41.2306 41.7775 41.045 42.2169 40.6931 42.5681C40.3412 42.9194 39.9019 43.105 39.375 43.125H22.0312C21.0938 43.1056 20.3175 42.7881 19.7025 42.1725C19.0875 41.5569 18.77 40.7806 18.75 39.8438C18.7694 38.9062 19.0869 38.13 19.7025 37.515C20.3181 36.9 21.0944 36.5825 22.0312 36.5625ZM26.25 18.75V26.1038L29.0625 23.8481L31.875 26.1038V18.75H26.25ZM24.375 16.875H33.75V28.0369C33.7306 28.4275 33.55 28.7059 33.2081 28.8722C32.8663 29.0384 32.5391 29.0044 32.2266 28.77L29.0625 26.25L25.8984 28.77C25.5859 29.0044 25.2587 29.0384 24.9169 28.8722C24.575 28.7059 24.3944 28.4275 24.375 28.0369V16.875Z" fill="#08080A" fill-opacity="0.96"/>
<rect x="300" width="60" height="60" rx="30" fill="#FFE9D6"/>
<path d="M330 30C331.602 29.9606 332.93 29.4138 333.984 28.3594C335.039 27.305 335.586 25.9769 335.625 24.375C335.586 22.7731 335.039 21.445 333.984 20.3906C332.93 19.3362 331.602 18.7894 330 18.75C328.398 18.7894 327.07 19.3362 326.016 20.3906C324.961 21.445 324.414 22.7731 324.375 24.375C324.414 25.9769 324.961 27.305 326.016 28.3594C327.07 29.4138 328.398 29.9606 330 30ZM330 31.875C327.871 31.8162 326.104 31.0838 324.697 29.6775C323.291 28.2713 322.559 26.5037 322.5 24.375C322.559 22.2463 323.291 20.4787 324.697 19.0725C326.104 17.6662 327.871 16.9338 330 16.875C332.129 16.9338 333.896 17.6662 335.303 19.0725C336.709 20.4787 337.441 22.2463 337.5 24.375C337.441 26.5037 336.709 28.2713 335.303 29.6775C333.896 31.0838 332.129 31.8162 330 31.875ZM330 30C330.274 30 330.498 30.0878 330.674 30.2634C330.85 30.4391 330.938 30.6638 330.938 30.9375V38.4375C330.938 38.7112 330.85 38.9359 330.674 39.1116C330.498 39.2872 330.274 39.375 330 39.375C329.726 39.375 329.502 39.2872 329.326 39.1116C329.15 38.9359 329.062 38.7112 329.062 38.4375V30.9375C329.062 30.6638 329.15 30.4391 329.326 30.2634C329.502 30.0878 329.726 30 330 30V30ZM326.25 34.0134V35.9175C324.551 36.2106 323.193 36.5962 322.178 37.0744C321.162 37.5525 320.644 38.0066 320.625 38.4366C320.684 39.0422 321.587 39.6525 323.335 40.2675C325.083 40.8825 327.305 41.2097 330 41.2491C332.696 41.2097 334.917 40.8825 336.665 40.2675C338.412 39.6525 339.316 39.0422 339.375 38.4366C339.356 38.0066 338.838 37.5525 337.822 37.0744C336.807 36.5962 335.449 36.2106 333.75 35.9175V34.0134C335.977 34.3453 337.774 34.9069 339.141 35.6981C340.507 36.4894 341.211 37.4025 341.25 38.4375C341.172 39.7656 340.073 40.8691 337.954 41.7478C335.834 42.6266 333.183 43.0856 330 43.125C326.816 43.0856 324.165 42.6266 322.046 41.7478C319.927 40.8691 318.829 39.7656 318.75 38.4375C318.789 37.4025 319.493 36.4894 320.859 35.6981C322.226 34.9069 324.023 34.3453 326.25 34.0134Z" fill="#08080A" fill-opacity="0.96"/>
<rect x="240" width="60" height="60" rx="30" fill="#D5CEFF"/>
<path d="M260.253 40.2666L264.208 38.9484L264.912 39.2709C266.513 40.0916 268.252 40.5019 270.127 40.5019C273.311 40.4044 275.962 39.3644 278.081 37.3819C280.199 35.3994 281.298 33.0019 281.377 30.1894C281.299 27.3769 280.2 24.9794 278.081 22.9969C275.961 21.0144 273.31 19.9744 270.127 19.8769C266.943 19.9744 264.292 21.0144 262.173 22.9969C260.054 24.9794 258.956 27.3769 258.877 30.1894C258.877 31.205 259.053 32.2109 259.405 33.2072C259.757 34.2034 260.274 35.1409 260.957 36.0197L261.602 36.8691L260.253 40.2666ZM258.905 42.6694C258.534 42.7869 258.216 42.7038 257.953 42.42C257.689 42.1363 257.625 41.8091 257.762 41.4384L259.462 37.1606C258.681 36.1256 258.075 35.0172 257.645 33.8353C257.215 32.6534 257 31.4375 257 30.1875C257.078 26.965 258.328 24.1575 260.75 21.765C263.172 19.3725 266.297 18.1175 270.125 18C273.953 18.1175 277.078 19.3725 279.5 21.765C281.922 24.1575 283.172 26.965 283.25 30.1875C283.172 33.41 281.922 36.2175 279.5 38.61C277.078 41.0025 273.953 42.2575 270.125 42.375C267.996 42.375 265.975 41.9063 264.06 40.9688L258.905 42.6694ZM270.126 31.6828C269.852 31.6828 269.603 31.6194 269.379 31.4925C269.154 31.3656 268.974 31.18 268.837 30.9356C268.7 30.6913 268.632 30.4422 268.632 30.1884C268.632 29.9347 268.7 29.6856 268.837 29.4413C268.974 29.1969 269.154 29.0113 269.379 28.8844C269.603 28.7575 269.852 28.6941 270.126 28.6941C270.556 28.6941 270.913 28.8356 271.196 29.1188C271.479 29.4019 271.62 29.7584 271.62 30.1884C271.62 30.6184 271.479 30.975 271.196 31.2581C270.913 31.5413 270.556 31.6828 270.126 31.6828ZM275.751 31.6828C275.477 31.6828 275.228 31.6194 275.004 31.4925C274.779 31.3656 274.599 31.18 274.462 30.9356C274.325 30.6913 274.257 30.4422 274.257 30.1884C274.257 29.9347 274.325 29.6856 274.462 29.4413C274.599 29.1969 274.779 29.0113 275.004 28.8844C275.228 28.7575 275.477 28.6941 275.751 28.6941C276.181 28.6941 276.538 28.8356 276.821 29.1188C277.104 29.4019 277.245 29.7584 277.245 30.1884C277.245 30.6184 277.104 30.975 276.821 31.2581C276.538 31.5413 276.181 31.6828 275.751 31.6828ZM264.501 31.6828C264.227 31.6828 263.978 31.6194 263.754 31.4925C263.529 31.3656 263.349 31.18 263.212 30.9356C263.075 30.6913 263.007 30.4422 263.007 30.1884C263.007 29.9347 263.075 29.6856 263.212 29.4413C263.349 29.1969 263.529 29.0113 263.754 28.8844C263.978 28.7575 264.227 28.6941 264.501 28.6941C264.931 28.6941 265.288 28.8356 265.571 29.1188C265.854 29.4019 265.995 29.7584 265.995 30.1884C265.995 30.6184 265.854 30.975 265.571 31.2581C265.288 31.5413 264.931 31.6828 264.501 31.6828Z" fill="#08080A" fill-opacity="0.96"/>
<rect x="180" width="60" height="60" rx="30" fill="#E6D2FF"/>
<path d="M198.75 26.25V39.375H221.25V26.25H198.75ZM197.812 24.375H222.188C222.461 24.375 222.686 24.4628 222.862 24.6384C223.037 24.8141 223.125 25.0388 223.125 25.3125V40.3125C223.125 40.5862 223.037 40.8109 222.862 40.9866C222.686 41.1622 222.461 41.25 222.188 41.25H197.812C197.539 41.25 197.314 41.1622 197.138 40.9866C196.963 40.8109 196.875 40.5862 196.875 40.3125V25.3125C196.875 25.0388 196.963 24.8141 197.138 24.6384C197.314 24.4628 197.539 24.375 197.812 24.375ZM199.688 20.625H220.312V22.5H199.688V20.625ZM202.5 16.875H217.5V18.75H202.5V16.875Z" fill="#08080A" fill-opacity="0.96"/>
<rect x="120" width="60" height="60" rx="30" fill="#C4F1FF"/>
<path d="M147.833 22.5C146.856 22.5 146.123 22.5391 145.635 22.6172C145.147 22.6953 144.727 22.8322 144.375 23.0278C143.789 23.3403 143.339 23.7897 143.027 24.3759C142.831 24.7278 142.694 25.1478 142.616 25.6359C142.538 26.1241 142.499 26.8566 142.499 27.8334V35.9194C142.499 36.8963 142.538 37.6288 142.616 38.1169C142.694 38.605 142.831 39.025 143.027 39.3769C143.339 39.9631 143.789 40.4125 144.375 40.725C144.727 40.9206 145.147 41.0575 145.635 41.1356C146.123 41.2138 146.856 41.2528 147.833 41.2528H152.168C153.145 41.2528 153.878 41.2138 154.366 41.1356C154.854 41.0575 155.274 40.9206 155.626 40.725C156.212 40.4125 156.662 39.9631 156.974 39.3769C157.17 39.025 157.307 38.605 157.385 38.1169C157.463 37.6288 157.502 36.8963 157.502 35.9194V27.8334C157.502 26.8566 157.463 26.1241 157.385 25.6359C157.307 25.1478 157.17 24.7278 156.974 24.3759C156.662 23.7897 156.212 23.3403 155.626 23.0278C155.274 22.8322 154.854 22.6953 154.366 22.6172C153.878 22.5391 153.145 22.5 152.168 22.5H147.833V22.5ZM147.833 20.625H152.168C153.38 20.625 154.298 20.6884 154.923 20.8153C155.548 20.9422 156.075 21.1325 156.505 21.3863C157.423 21.8744 158.127 22.5775 158.615 23.4956C158.868 23.9256 159.059 24.4531 159.186 25.0781C159.313 25.7031 159.376 26.6213 159.376 27.8325V35.9184C159.376 37.1297 159.313 38.0478 159.186 38.6728C159.059 39.2978 158.868 39.8253 158.615 40.2553C158.127 41.1734 157.423 41.8766 156.505 42.3647C156.075 42.6184 155.548 42.8088 154.923 42.9356C154.298 43.0625 153.38 43.1259 152.168 43.1259H147.833C146.621 43.1259 145.703 43.0625 145.078 42.9356C144.453 42.8088 143.926 42.6184 143.496 42.3647C142.578 41.8766 141.874 41.1734 141.386 40.2553C141.132 39.8253 140.942 39.2978 140.815 38.6728C140.688 38.0478 140.625 37.1297 140.625 35.9184V27.8325C140.625 26.6213 140.688 25.7031 140.815 25.0781C140.942 24.4531 141.132 23.9256 141.386 23.4956C141.874 22.5775 142.578 21.8744 143.496 21.3863C143.926 21.1325 144.453 20.9422 145.078 20.8153C145.703 20.6884 146.621 20.625 147.833 20.625V20.625ZM150 24.375C150.625 24.375 150.938 24.6875 150.938 25.3125V29.0625C150.938 29.6875 150.625 30 150 30C149.375 30 149.063 29.6875 149.063 29.0625V25.3125C149.063 24.6875 149.375 24.375 150 24.375ZM150.938 21.5625C150.938 21.8363 150.85 22.0609 150.674 22.2366C150.498 22.4122 150.274 22.5 150 22.5C149.726 22.5 149.502 22.4122 149.326 22.2366C149.15 22.0609 149.063 21.8363 149.063 21.5625V19.6875C149.063 19.4138 148.975 19.1891 148.799 19.0134C148.623 18.8378 148.399 18.75 148.125 18.75H145.313C145.039 18.75 144.814 18.6622 144.638 18.4866C144.463 18.3109 144.375 18.0863 144.375 17.8125C144.375 17.5388 144.463 17.3141 144.638 17.1384C144.814 16.9628 145.039 16.875 145.313 16.875H148.125C148.926 16.8944 149.59 17.1678 150.117 17.6953C150.645 18.2228 150.918 18.8869 150.938 19.6875V21.5625Z" fill="#08080A" fill-opacity="0.96"/>
<rect x="60" width="60" height="60" rx="30" fill="#FFF4CF"/>
<path d="M85.5803 36.75H79.75C79.4762 36.75 79.2516 36.6622 79.0759 36.4866C78.9003 36.3109 78.8125 36.0863 78.8125 35.8125V19.875H76.9375C76.6637 19.875 76.4391 19.7872 76.2634 19.6116C76.0878 19.4359 76 19.2113 76 18.9375C76 18.6637 76.0878 18.4391 76.2634 18.2634C76.4391 18.0878 76.6637 18 76.9375 18H103.188C103.461 18 103.686 18.0878 103.862 18.2634C104.037 18.4391 104.125 18.6637 104.125 18.9375C104.125 19.2113 104.037 19.4359 103.862 19.6116C103.686 19.7872 103.461 19.875 103.188 19.875H101.312V35.8125C101.312 36.0863 101.225 36.3109 101.049 36.4866C100.873 36.6622 100.649 36.75 100.375 36.75H94.5447L97.7969 42.375H95.6284L92.3763 36.75H87.7469L84.4947 42.375H82.3263L85.5803 36.75ZM99.4375 19.875H80.6875V34.875H99.4375V19.875ZM85.1116 29.9241C84.9159 30.0997 84.6912 30.1875 84.4375 30.1875C84.1838 30.1875 83.9641 30.0947 83.7784 29.9091C83.5928 29.7234 83.5 29.5037 83.5 29.25C83.5 28.9963 83.5878 28.7716 83.7634 28.5759L88.0994 24.2691L91.7613 27.0234L94.9544 23.0391C95.1888 22.7459 95.4866 22.6238 95.8478 22.6725C96.2091 22.7213 96.4531 22.9166 96.58 23.2584C96.7069 23.6003 96.6531 23.9178 96.4188 24.2109L92.1119 29.6016L88.2738 26.73L85.1116 29.9241Z" fill="#08080A" fill-opacity="0.96"/>
</g>
<defs>
<clipPath id="clip0_170_215">
<rect width="360" height="60" fill="white"/>
</clipPath>
</defs>
</svg>
